<svg id="visual" viewBox="0 0 900 600" width="900" height="600" xmlns="http://www.w3.org/2000/svg" xmlns:xlink="http://www.w3.org/1999/xlink" version="1.1"><g stroke-width="1" stroke-linejoin="bevel"><path d="M470 293L453 212L358.5 214Z" fill="#0c0d16" stroke="#0c0d16"></path><path d="M358.5 214L302.5 300L470 293Z" fill="#282a3a" stroke="#282a3a"></path><path d="M302.5 300L413 377L470 293Z" fill="#1e202c" stroke="#1e202c"></path><path d="M413 377L561.5 308L470 293Z" fill="#15161f" stroke="#15161f"></path><path d="M470 293L561.5 308L453 212Z" fill="#282a3a" stroke="#282a3a"></path><path d="M358.5 214L249 229L302.5 300Z" fill="#1b1c27" stroke="#1b1c27"></path><path d="M601.5 194L467 109L453 212Z" fill="#1e202c" stroke="#1e202c"></path><path d="M453 212L467 109L358.5 214Z" fill="#252735" stroke="#252735"></path><path d="M358.5 214L298.5 129L249 229Z" fill="#181923" stroke="#181923"></path><path d="M467 109L298.5 129L358.5 214Z" fill="#060611" stroke="#060611"></path><path d="M243 332L297.5 401L302.5 300Z" fill="#0c0d16" stroke="#0c0d16"></path><path d="M302.5 300L297.5 401L413 377Z" fill="#0c0d16" stroke="#0c0d16"></path><path d="M249 229L243 332L302.5 300Z" fill="#0c0d16" stroke="#0c0d16"></path><path d="M561.5 308L601.5 194L453 212Z" fill="#11111a" stroke="#11111a"></path><path d="M346.5 483L432 475L413 377Z" fill="#252735" stroke="#252735"></path><path d="M413 377L600.5 374L561.5 308Z" fill="#282a3a" stroke="#282a3a"></path><path d="M432 475L600.5 374L413 377Z" fill="#0c0d16" stroke="#0c0d16"></path><path d="M713 297L676 189L601.5 194Z" fill="#252735" stroke="#252735"></path><path d="M226 527L346.5 483L297.5 401Z" fill="#11111a" stroke="#11111a"></path><path d="M297.5 401L346.5 483L413 377Z" fill="#00000b" stroke="#00000b"></path><path d="M298.5 129L202 133L249 229Z" fill="#0c0d16" stroke="#0c0d16"></path><path d="M120.5 298L202 402L243 332Z" fill="#1b1c27" stroke="#1b1c27"></path><path d="M205 0L202 133L298.5 129Z" fill="#252735" stroke="#252735"></path><path d="M120.5 298L243 332L249 229Z" fill="#282a3a" stroke="#282a3a"></path><path d="M243 332L202 402L297.5 401Z" fill="#1b1c27" stroke="#1b1c27"></path><path d="M570.5 508L638 373L600.5 374Z" fill="#282a3a" stroke="#282a3a"></path><path d="M600.5 374L638 373L561.5 308Z" fill="#00000b" stroke="#00000b"></path><path d="M601.5 194L585.5 81L467 109Z" fill="#11111a" stroke="#11111a"></path><path d="M467 109L448 0L298.5 129Z" fill="#181923" stroke="#181923"></path><path d="M643 89L585.5 81L601.5 194Z" fill="#15161f" stroke="#15161f"></path><path d="M585.5 81L448 0L467 109Z" fill="#252735" stroke="#252735"></path><path d="M713 297L601.5 194L561.5 308Z" fill="#212331" stroke="#212331"></path><path d="M448 0L297.5 0L298.5 129Z" fill="#181923" stroke="#181923"></path><path d="M112.5 227L120.5 298L249 229Z" fill="#060611" stroke="#060611"></path><path d="M472 600L570.5 508L432 475Z" fill="#212331" stroke="#212331"></path><path d="M432 475L570.5 508L600.5 374Z" fill="#15161f" stroke="#15161f"></path><path d="M676 189L643 89L601.5 194Z" fill="#1e202c" stroke="#1e202c"></path><path d="M585.5 81L590.5 0L448 0Z" fill="#181923" stroke="#181923"></path><path d="M124.5 96L112.5 227L202 133Z" fill="#1b1c27" stroke="#1b1c27"></path><path d="M202 133L112.5 227L249 229Z" fill="#212331" stroke="#212331"></path><path d="M787.5 317L713 297L780.5 425Z" fill="#181923" stroke="#181923"></path><path d="M638 373L713 297L561.5 308Z" fill="#1b1c27" stroke="#1b1c27"></path><path d="M750.5 0L637 0L643 89Z" fill="#181923" stroke="#181923"></path><path d="M202 402L226 527L297.5 401Z" fill="#11111a" stroke="#11111a"></path><path d="M346.5 483L356.5 600L432 475Z" fill="#181923" stroke="#181923"></path><path d="M145.5 520L226 527L202 402Z" fill="#060611" stroke="#060611"></path><path d="M637 0L590.5 0L585.5 81Z" fill="#252735" stroke="#252735"></path><path d="M0 383L127.5 431L120.5 298Z" fill="#060611" stroke="#060611"></path><path d="M120.5 298L127.5 431L202 402Z" fill="#181923" stroke="#181923"></path><path d="M205 0L124.5 96L202 133Z" fill="#1e202c" stroke="#1e202c"></path><path d="M297.5 0L205 0L298.5 129Z" fill="#252735" stroke="#252735"></path><path d="M226 527L356.5 600L346.5 483Z" fill="#212331" stroke="#212331"></path><path d="M356.5 600L472 600L432 475Z" fill="#00000b" stroke="#00000b"></path><path d="M643 89L637 0L585.5 81Z" fill="#060611" stroke="#060611"></path><path d="M815.5 68L643 89L676 189Z" fill="#0c0d16" stroke="#0c0d16"></path><path d="M127.5 431L145.5 520L202 402Z" fill="#060611" stroke="#060611"></path><path d="M226 527L190 600L356.5 600Z" fill="#282a3a" stroke="#282a3a"></path><path d="M570.5 508L678 520L638 373Z" fill="#060611" stroke="#060611"></path><path d="M578.5 600L678 520L570.5 508Z" fill="#1e202c" stroke="#1e202c"></path><path d="M472 600L578.5 600L570.5 508Z" fill="#0c0d16" stroke="#0c0d16"></path><path d="M780.5 425L713 297L638 373Z" fill="#0c0d16" stroke="#0c0d16"></path><path d="M713 297L814.5 178L676 189Z" fill="#15161f" stroke="#15161f"></path><path d="M145.5 520L190 600L226 527Z" fill="#282a3a" stroke="#282a3a"></path><path d="M205 0L105.5 0L124.5 96Z" fill="#252735" stroke="#252735"></path><path d="M0 213L0 266L112.5 227Z" fill="#1b1c27" stroke="#1b1c27"></path><path d="M127.5 431L0 480L145.5 520Z" fill="#282a3a" stroke="#282a3a"></path><path d="M145.5 520L98.5 600L190 600Z" fill="#1e202c" stroke="#1e202c"></path><path d="M112.5 227L0 266L120.5 298Z" fill="#252735" stroke="#252735"></path><path d="M0 213L112.5 227L124.5 96Z" fill="#282a3a" stroke="#282a3a"></path><path d="M678 520L780.5 425L638 373Z" fill="#252735" stroke="#252735"></path><path d="M0 84L0 213L124.5 96Z" fill="#15161f" stroke="#15161f"></path><path d="M900 217L814.5 178L787.5 317Z" fill="#1e202c" stroke="#1e202c"></path><path d="M787.5 317L814.5 178L713 297Z" fill="#181923" stroke="#181923"></path><path d="M0 266L0 383L120.5 298Z" fill="#252735" stroke="#252735"></path><path d="M815.5 68L750.5 0L643 89Z" fill="#11111a" stroke="#11111a"></path><path d="M105.5 0L0 84L124.5 96Z" fill="#11111a" stroke="#11111a"></path><path d="M578.5 600L702 600L678 520Z" fill="#1e202c" stroke="#1e202c"></path><path d="M678 520L803.5 530L780.5 425Z" fill="#060611" stroke="#060611"></path><path d="M814.5 178L815.5 68L676 189Z" fill="#212331" stroke="#212331"></path><path d="M0 480L98.5 600L145.5 520Z" fill="#181923" stroke="#181923"></path><path d="M0 383L0 480L127.5 431Z" fill="#11111a" stroke="#11111a"></path><path d="M702 600L803.5 530L678 520Z" fill="#0c0d16" stroke="#0c0d16"></path><path d="M900 334L900 217L787.5 317Z" fill="#1e202c" stroke="#1e202c"></path><path d="M105.5 0L0 0L0 84Z" fill="#181923" stroke="#181923"></path><path d="M900 334L787.5 317L900 370Z" fill="#282a3a" stroke="#282a3a"></path><path d="M814.5 178L900 88L815.5 68Z" fill="#0c0d16" stroke="#0c0d16"></path><path d="M900 370L787.5 317L780.5 425Z" fill="#1b1c27" stroke="#1b1c27"></path><path d="M900 469L900 370L780.5 425Z" fill="#11111a" stroke="#11111a"></path><path d="M702 600L791.5 600L803.5 530Z" fill="#1e202c" stroke="#1e202c"></path><path d="M803.5 530L900 469L780.5 425Z" fill="#181923" stroke="#181923"></path><path d="M900 217L900 88L814.5 178Z" fill="#212331" stroke="#212331"></path><path d="M815.5 68L900 0L750.5 0Z" fill="#252735" stroke="#252735"></path><path d="M0 480L0 600L98.5 600Z" fill="#00000b" stroke="#00000b"></path><path d="M900 600L900 469L803.5 530Z" fill="#1b1c27" stroke="#1b1c27"></path><path d="M900 88L900 0L815.5 68Z" fill="#282a3a" stroke="#282a3a"></path><path d="M791.5 600L900 600L803.5 530Z" fill="#15161f" stroke="#15161f"></path></g></svg>