<svg id="visual" viewBox="0 0 960 540" width="960" height="540" xmlns="http://www.w3.org/2000/svg" xmlns:xlink="http://www.w3.org/1999/xlink" version="1.1"><path d="M0 6L320 6L320 39L640 39L640 12L960 12L960 23L960 0L960 0L640 0L640 0L320 0L320 0L0 0Z" fill="#3b3b3b"></path><path d="M0 82L320 82L320 158L640 158L640 87L960 87L960 131L960 21L960 10L640 10L640 37L320 37L320 4L0 4Z" fill="#39393b"></path><path d="M0 120L320 120L320 185L640 185L640 120L960 120L960 136L960 129L960 85L640 85L640 156L320 156L320 80L0 80Z" fill="#38383b"></path><path d="M0 147L320 147L320 217L640 217L640 125L960 125L960 168L960 134L960 118L640 118L640 183L320 183L320 118L0 118Z" fill="#36363b"></path><path d="M0 168L320 168L320 239L640 239L640 158L960 158L960 174L960 166L960 123L640 123L640 215L320 215L320 145L0 145Z" fill="#34343b"></path><path d="M0 249L320 249L320 255L640 255L640 212L960 212L960 260L960 172L960 156L640 156L640 237L320 237L320 166L0 166Z" fill="#33333b"></path><path d="M0 352L320 352L320 374L640 374L640 347L960 347L960 390L960 258L960 210L640 210L640 253L320 253L320 247L0 247Z" fill="#31313b"></path><path d="M0 384L320 384L320 411L640 411L640 352L960 352L960 444L960 388L960 345L640 345L640 372L320 372L320 350L0 350Z" fill="#2f303b"></path><path d="M0 406L320 406L320 433L640 433L640 417L960 417L960 482L960 442L960 350L640 350L640 409L320 409L320 382L0 382Z" fill="#2e2e3b"></path><path d="M0 411L320 411L320 449L640 449L640 422L960 422L960 503L960 480L960 415L640 415L640 431L320 431L320 404L0 404Z" fill="#2c2d3a"></path><path d="M0 438L320 438L320 482L640 482L640 449L960 449L960 514L960 501L960 420L640 420L640 447L320 447L320 409L0 409Z" fill="#2a2b3a"></path><path d="M0 541L320 541L320 541L640 541L640 541L960 541L960 541L960 512L960 447L640 447L640 480L320 480L320 436L0 436Z" fill="#282a3a"></path></svg>